<svg xmlns="http://www.w3.org/2000/svg" viewBox="0 0 106 106"><defs><style>.cls-1{fill:#fff;}.cls-2{fill:#70cbf6;}.cls-3{fill:#485761;}.cls-4{fill:#43d490;}.cls-5{opacity:0.15;}.cls-6{fill:#171c1f;}.cls-7{opacity:0.1;}</style></defs><title>mobile</title><g id="Mobile"><g id="Fill"><rect class="cls-1" x="31" y="10" width="44" height="86" rx="6" ry="6"/></g><g id="Blue"><rect class="cls-2" x="39" y="22" width="28" height="26"/></g><g id="Dark_Blue" data-name="Dark Blue"><rect class="cls-3" x="39" y="50" width="28" height="16"/></g><g id="Green"><rect class="cls-4" x="39" y="68" width="28" height="16"/></g><g id="Inner_Lines_1" data-name="Inner Lines 1" class="cls-5"><path class="cls-6" d="M53,37H42v2H53Zm9,6H42v2H62ZM59,25H42v2H59ZM42,74H64V72H42Zm0-43v2H64V31Zm0,49H59V78H42Z"/></g><g id="Inner_Lines_2" data-name="Inner Lines 2" class="cls-5"><path class="cls-1" d="M42,62H56V60H42Zm0-8v2H64V54Z"/></g><g id="Inner_Lines_3" data-name="Inner Lines 3"><path class="cls-6" d="M53,16h3a1,1,0,0,0,0-2H53a1,1,0,0,0,0,2Zm-3,0a1,1,0,1,0-1-1A1,1,0,0,0,50,16Zm3,73a2,2,0,1,0,2,2A2,2,0,0,0,53,89ZM35,18V88H71V18ZM69,86H37V20H69Z"/></g><g id="Shadows" class="cls-7"><path d="M69,84H37v2H69ZM33,92v2H73V92Z"/></g><g id="Outline"><path class="cls-6" d="M69,8H37a8,8,0,0,0-8,8V90a8,8,0,0,0,8,8H69a8,8,0,0,0,8-8V16A8,8,0,0,0,69,8Zm4,82a4,4,0,0,1-4,4H37a4,4,0,0,1-4-4V16a4,4,0,0,1,4-4H69a4,4,0,0,1,4,4Z"/></g></g></svg>